<svg width="92" height="47" viewBox="0 0 92 47" fill="none" xmlns="http://www.w3.org/2000/svg">
<g id="Frame 280">
<path id="Ellipse 90" d="M2.76081 46.0138C1.23605 46.0138 -0.00865369 44.7763 0.0827313 43.2543C0.754996 32.0572 5.50056 21.4537 13.4771 13.4771C22.1064 4.84786 33.8102 -2.88425e-06 46.0138 -2.01133e-06C58.2174 -1.13841e-06 69.9212 4.84787 78.5505 13.4771C86.527 21.4537 91.2726 32.0572 91.9448 43.2543C92.0362 44.7763 90.7915 46.0138 89.2668 46.0138C87.742 46.0138 86.5157 44.7761 86.4119 43.2548C85.7477 33.5235 81.5869 24.3224 74.6461 17.3815C67.0523 9.78778 56.753 5.52165 46.0138 5.52165C35.2746 5.52165 24.9753 9.78778 17.3815 17.3815C10.4407 24.3223 6.27987 33.5235 5.61566 43.2548C5.51183 44.7761 4.28557 46.0138 2.76081 46.0138Z" fill="#EDF2F7"/>
<path id="Ellipse 86" d="M2.76081 46.0138C1.23605 46.0138 -0.00865369 44.7763 0.0827313 43.2543C0.754996 32.0572 5.50056 21.4537 13.4771 13.4771C22.1064 4.84786 33.8102 -2.88425e-06 46.0138 -2.01133e-06C58.2174 -1.13841e-06 69.9212 4.84787 78.5505 13.4771C86.527 21.4537 91.2726 32.0572 91.9448 43.2543C92.0362 44.7763 90.7915 46.0138 89.2668 46.0138C87.742 46.0138 86.5157 44.7761 86.4119 43.2548C85.7477 33.5235 81.5869 24.3224 74.6461 17.3815C67.0523 9.78778 56.753 5.52165 46.0138 5.52165C35.2746 5.52165 24.9753 9.78778 17.3815 17.3815C10.4407 24.3223 6.27987 33.5235 5.61566 43.2548C5.51183 44.7761 4.28557 46.0138 2.76081 46.0138Z" fill="#48BB78"/>
<path id="Ellipse 89" d="M2.76081 46.0138C1.23605 46.0138 -0.00865369 44.7765 0.0827694 43.2545C0.57115 35.1237 3.21102 27.25 7.75471 20.4499C12.8108 12.883 19.9971 6.98526 28.4051 3.50259C36.813 0.0199128 46.0648 -0.891313 54.9906 0.884142C63.0119 2.47967 70.4461 6.18054 76.5408 11.5846C77.6817 12.5961 77.6764 14.3512 76.5983 15.4293C75.5201 16.5075 73.7779 16.4995 72.6288 15.4973C67.3125 10.8606 60.8634 7.68213 53.9134 6.2997C46.0587 4.7373 37.9171 5.53918 30.5181 8.60393C23.1191 11.6687 16.7951 16.8587 12.3458 23.5176C8.40897 29.4094 6.09627 36.2172 5.61571 43.255C5.51184 44.7762 4.28557 46.0138 2.76081 46.0138Z" fill="#FAF089"/>
<path id="Ellipse 88" d="M2.76081 46.0138C1.23605 46.0138 -0.00864606 44.7766 0.0827847 43.2546C0.389097 38.1555 1.54281 33.1364 3.50258 28.4051C5.81499 22.8224 9.20434 17.7499 13.4771 13.4771C17.7499 9.20435 22.8224 5.815 28.4051 3.50259C33.1364 1.54283 38.1555 0.389108 43.2546 0.0827968C44.7766 -0.00863379 46.0138 1.23606 46.0138 2.76083C46.0138 4.28559 44.7763 5.51186 43.2551 5.61574C38.8816 5.91439 34.5793 6.92172 30.5181 8.60393C25.6054 10.6389 21.1416 13.6215 17.3815 17.3815C13.6215 21.1416 10.6388 25.6054 8.60392 30.5181C6.92171 34.5793 5.91438 38.8816 5.61572 43.2551C5.51184 44.7763 4.28557 46.0138 2.76081 46.0138Z" fill="#F6AD55"/>
<path id="Ellipse 87" d="M2.76081 46.0138C1.23605 46.0138 -0.00865369 44.7763 0.0827313 43.2543C0.699988 32.9735 4.75119 23.193 11.5843 15.4869C12.596 14.3461 14.3511 14.3512 15.4293 15.4293C16.5075 16.5075 16.4994 18.2498 15.4971 19.3989C9.68881 26.0582 6.21738 34.4389 5.61566 43.2548C5.51183 44.7761 4.28557 46.0138 2.76081 46.0138Z" fill="#E53E3E"/>
</g>
</svg>
